<?xml version="1.0" encoding="UTF-8"?>
<!-- Generated by Pixelmator Pro 3.6 -->
<svg width="512" height="512" viewBox="0 0 512 512" xmlns="http://www.w3.org/2000/svg">
    <text id="This-is--Rajat" transform="matrix(0.995833 0.091191 -0.091191 0.995833 15.585633 -27.113385)" xml:space="preserve"><tspan x="123" y="138" font-family="HanziPen TC" font-size="63" fill="#d4d4d4" xml:space="preserve">This is</tspan><tspan x="123" y="226" font-family="HanziPen TC" font-size="63" fill="#d4d4d4" xml:space="preserve">Rajat Payghan</tspan></text>
    <g id="62761a51f2bbb474d4570c77Arrow-13">
        <path id="Path" fill="#d4d4d4" stroke="none" d="M 146.324768 383.522858 C 144.703827 383.957031 141.080734 385.189484 136.809479 386.035889 C 135.7435 386.269867 134.654221 386.517517 133.552856 386.772247 C 132.451492 387.026978 131.32402 387.156067 130.218704 387.350647 C 128.004013 387.679443 125.878868 388.159088 123.973885 388.322174 C 106.506531 390.681519 88.369102 389.041565 71.894302 382.879333 C 69.351624 381.821838 64.962723 380.252319 66.177483 377.445984 C 67.452263 374.526428 70.8414 373.774872 74.969933 375.325287 C 85.117271 378.771912 95.948151 381.146057 106.757744 380.734772 C 114.622131 380.392761 122.452934 379.726379 130.147461 378.186646 C 137.83667 376.665588 145.391052 374.489258 152.59903 371.45282 C 159.07782 368.718811 165.234039 365.329529 171.129288 361.546387 C 176.96936 357.670471 182.349075 353.142334 187.321457 348.212036 C 189.527588 345.762512 191.843826 343.420319 193.795349 340.776215 C 194.789459 339.458984 195.868225 338.232971 196.786591 336.866394 L 199.562241 332.801483 C 203.086166 327.266479 206.364304 321.578674 209.073914 315.61438 C 211.552307 310.535736 213.637283 305.265625 215.609543 299.936646 L 216.886337 295.875061 C 217.291229 294.512421 217.788345 293.173645 218.082535 291.782104 C 218.726334 289.013519 219.504135 286.260193 219.877945 283.430969 C 220.085876 282.105652 220.16803 280.619324 220.243637 279.121429 C 220.245392 277.604309 220.203644 276.066101 220.336517 274.612793 C 220.659744 272.203949 220.578995 268.171936 220.883728 265.758301 C 221.037888 264.714539 221.06282 263.637146 220.904465 262.620209 C 220.096313 258.01416 221.123245 256.646332 224.683273 257.92038 C 225.464249 258.212891 226.445679 257.700226 227.042068 258.851196 C 227.069336 258.897705 227.123825 258.990662 227.151093 259.037231 C 228.324234 260.772308 228.72583 262.631531 228.856766 264.508545 C 228.878998 266.386658 228.630798 268.282776 228.648224 270.179352 C 228.486038 288.811279 223.660095 307.300232 215.227798 323.901855 C 209.98848 334.083862 203.236404 343.417755 195.649811 352.021484 C 194.59021 353.173798 193.686081 354.484985 192.564423 355.611298 C 191.467926 356.754028 190.339447 357.868713 189.075699 358.859344 L 189.115463 358.820374 C 187.962906 360.027283 186.693436 361.115173 185.430817 362.214539 C 184.161514 363.302307 182.919647 364.436707 181.584137 365.438232 C 171.407013 372.981079 159.599915 379.290863 148.024094 382.902039 C 147.578781 383.022308 147.000153 383.314575 146.324768 383.522858 Z"/>
        <path id="path1" fill="#d4d4d4" stroke="none" d="M 76.547211 384.980408 C 77.260994 385.796844 79.80941 388.679779 81.687752 390.282867 C 85.987671 394.046112 90.576324 397.342865 95.131561 400.95639 C 95.851891 401.518982 97.193222 402.233429 95.796585 404.943085 C 94.352119 407.759003 92.487526 408.898804 91.00988 407.951752 C 87.44706 405.632141 84.355103 402.755249 80.749931 400.632324 C 75.400726 397.531067 71.25351 392.881226 67.254059 388.269958 C 66.339287 387.243042 65.491966 386.145325 64.664444 385.051758 L 63.446125 383.374329 C 63.006474 382.756653 62.58778 382.095642 62.189899 381.390991 C 61.395004 379.981262 60.657585 378.428253 60.269337 376.40509 C 60.084354 375.450623 60.003696 374.138184 60.198254 372.976929 C 60.385975 371.804077 60.79295 370.65918 61.414238 369.638672 C 61.990456 368.675781 62.749355 367.80899 63.650963 367.108582 C 64.581161 366.375916 65.481529 365.910736 66.320396 365.528503 C 68.018631 364.799042 69.555717 364.46109 70.964188 364.198364 L 72.907692 363.887451 L 74.733307 363.614624 C 75.948555 363.449402 77.171585 363.295471 78.398521 363.20166 C 82.624893 362.866028 86.901436 363.282593 91.150513 363.199371 C 92.152626 363.174805 93.299156 362.518555 94.395966 362.469666 C 95.300896 362.439453 96.810081 362.320923 97.716431 362.508728 C 98.109047 362.591248 98.533287 362.702026 98.886658 362.557434 C 100.576775 361.895203 101.13015 362.946228 100.850693 366.470398 C 100.787231 367.242218 101.022705 368.229431 100.648987 368.792236 C 100.632507 368.817566 100.599571 368.868164 100.595184 368.886353 C 99.503113 371.105042 98.122215 370.242004 96.809792 370.401611 C 90.383522 371.198059 83.924911 371.779083 77.483917 372.443573 L 74.522858 372.725098 C 73.532387 372.820923 72.509506 372.889191 71.701347 373.003387 C 70.874214 373.112915 70.137062 373.294922 69.595764 373.518372 C 69.338005 373.638275 69.110313 373.756073 68.990974 373.872833 C 68.907051 373.968964 68.892006 374.024353 68.868332 374.116486 C 68.86264 374.213562 68.925552 374.348602 69.003403 374.42804 C 69.070038 374.514038 69.106979 374.523682 68.963264 374.545471 C 69.022209 374.620331 69.07843 374.556091 69.177856 374.779114 C 69.262108 374.948578 69.393257 375.200073 69.48542 375.489868 C 69.69223 376.056335 70.064331 376.744659 70.540497 377.450348 C 70.970444 378.104889 71.715591 379.028259 72.294373 379.829956 C 73.568077 381.443604 74.835762 383.045013 76.031662 384.579315 C 76.164024 384.75177 76.40358 384.814453 76.547211 384.980408 Z"/>
    </g>
</svg>
